<?xml version="1.0" encoding="UTF-8" standalone="no"?>
<svg id="svg4136" xmlns:rdf="http://www.w3.org/1999/02/22-rdf-syntax-ns#" xmlns="http://www.w3.org/2000/svg" height="864.78" viewBox="0 0 1077.2 864.7804" width="1077.2" version="1.1" xmlns:cc="http://creativecommons.org/ns#" xmlns:dc="http://purl.org/dc/elements/1.1/">
<path id="path4146" d="m206.42 862.8c-47.404-8.9386-83.101-49.492-81.393-92.465 1.5869-39.94 30.414-70.377 200.74-211.95 51.624-42.909 58.453-52.83 52.409-76.136l-1.8083-6.9719 2.9217-2.7226 2.9217-2.7226-2.3481 2.6989c-2.5042 2.8783-2.5012 3.0165 0.28411 13.261 6.228 22.907 2.1432 28.485-64.38 87.909-147.89 132.11-158.57 142.73-173.43 172.36-6.6506 13.267-8.5114 31.27-4.3987 42.559 1.2965 3.5586 1.3563 3.1617 0.99478-6.6043-0.97736-26.403 13.745-53.73 42.388-78.682 5.3666-4.675 23.299-20.667 39.851-35.539 37.308-33.521 74.049-65.972 108.6-95.922 25.345-21.968 44.918-40.46 51.904-49.039 2.6409-3.2427 2.8294-3.356 0.99563-0.59838-6.5687 9.8779-23.171 25.59-89.91 85.09-31.625 28.195-60.875 54.736-65 58.981-4.125 4.2447-16.05 15.615-26.5 25.267-25.94 23.959-38.912 39.494-47.066 56.365-4.5692 9.4534-4.3401 10.693 0.35023 1.8951 3.9431-7.3966 12.489-19.316 18.641-26 2.025-2.2 1.0207-0.56233-2.2318 3.6393-16.219 20.951-22.852 37.148-20.42 49.861l0.86094 4.5 0.78703-6.9832c2.4671-21.891 13.183-39.82 40.578-67.891 53.753-55.08 90.117-84.732 120.26-98.062 7.2157-3.1911 7.183-3.0782-1.0085 3.4848-13.606 10.901-106.94 98.882-118.58 111.78-50.563 56.022-28.465 105.61 47.088 105.66 20.094 0.0144 20.245 0.14124 4.2426 3.5581-6.4377 1.3746-7.5676 1.832-4.6571 1.8853 15.496 0.28372 61.68-16.406 74.657-26.979l2.5-2.0368-3.5 1.437c-1.925 0.79036-5.975 2.5534-9 3.9178-43.415 19.582-96.412 17.564-118.4-4.5087-25.946-26.045-13.609-50.733 60.181-120.43 21.413-20.226 63.282-52.965 56.614-44.269-0.60807 0.79308-9.7904 13.142-20.405 27.442-21.981 29.613-32.991 43.646-50.997 65-37.509 44.485-39.782 55.455-13.372 64.541 89.158 30.675 217.88-98.682 176.59-177.45-13.974-26.654-34.656-24.149-83.457 10.108-10.314 7.2401-9.7698 6.1542 2-3.9934 50.452-43.498 75.987-44.624 95.371-4.204 7.6148 15.879 10.118 43.664 5.675 63-2.6701 11.621-2.8583 13.28-0.82356 7.26 7.1635-21.193 7.9514-52.835 1.9577-78.614-2.1286-9.1554-3.7144-11.963-11.333-20.068l-5.097-5.4218 4.2328 3.2422c2.328 1.7832 5.1406 4.3962 6.25 5.8066 2.5097 3.1905 2.5142 1.8304 0.0257-7.7053-11.452-43.882-0.15442-70.223 43.389-101.16 9.4064-6.6841 21.05-15.314 25.875-19.177l8.7724-7.0243-5.7171-3.0669c-7.358-3.9471-19.222-15.649-22.373-22.067-1.3501-2.75-2.544-5.1642-2.653-5.365-0.10909-0.20075-5.2841 3.6526-11.5 8.5629-6.2159 4.9104-20.388 15.751-31.493 24.09l-20.191 15.162 0.40985 3.7752c0.22541 2.0764 0.17262 2.8753-0.11732 1.7753-1.2176-4.6192-1.3564-4.7894-2.8781-3.5265-3.1302 2.5979-4.1829-0.0892-2.4623-6.2854 1.1272-4.0591 3.0292-4.4744 3.9027-0.85209 0.46033 1.9088 4.4126-1.277 31.006-24.993l30.478-27.181 0.12955-7.0952c0.0713-3.9024 0.47838-8.2139 0.90473-9.5812 0.73344-2.3521 0.67379-2.4002-1.1077-0.89413-5.6875 4.8083-45.14 37.457-52.383 43.349-12.392 10.081-9.6076 7.2664 73.5-74.302 239.33-234.9 374.86-361.49 393-367.08 45.736-14.094 114.92-10.218 177.93 9.9683 20.947 6.7099 30.735 20.665 26.314 37.519-3.57 13.612 1.576 9.4531-198.75 160.61-116.12 87.623-148.67 112.29-203.63 154.34l-47.051 36 4.9387 0.30572c2.9334 0.18159 5.6838-0.22444 6.774-1 1.0094-0.71815 13.677-10.565 28.15-21.882 34.916-27.302 69.815-53.993 69.815-53.396 0 0.77131-45.408 38.281-71.277 58.878-13.059 10.398-23.612 19.039-23.45 19.201s7.4792 2.3589 16.26 4.882c81.654 23.462 282.53 121.26 381.81 178.86 31.389 18.212 32.161 18.888 32.161 28.153 0 8.6108-1.4389 10.145-19.875 21.195-22.856 13.698-47.7 29.036-64.951 40.098-18.346 11.764-14.613 12.053-46.674-3.6201-26.788-13.096-191.51-94.858-249.5-120.71-59.972-26.733-86.162-39.689-119.83-59.277-18.862-10.975-19.925-12.748-11.513-19.21l4.3414-3.3349-3.9625 4.1883c-5.236 5.5344-5.1026 5.6517 18.962 16.69 63.544 29.146 240.49 115.04 302.11 136.49 35.388 12.317 60.7 44.661 73.057 28.894l14.167 6.9245 7.3334-4.5667c4.0334-2.5117 20.833-12.195 37.333-21.518 16.5-9.3233 30.364-17.291 30.809-17.705 1.4661-1.365-58.467-34.629-98.026-54.407-44.418-22.207-214.63-105.83-280.59-130.73-43.8-16.534-36.694-16.08-52.28-3.3418-12.291 10.045-48.441 36.447-49.906 36.447-0.38079 0 1.1496-2.2 3.4008-4.8888 4.5016-5.3767 5.3436-7.4578 1.8431-4.5559-1.2375 1.0259 1.4135-1.7169 5.8911-6.095 7.9654-7.7885 32.303-35.034 29.352-32.86-3.8098 2.8078-75.148 58.315-88.338 68.735-8.1645 6.4497-23.548 17.569-34.185 24.709-36.849 24.735-40.471 33.107-31.549 72.916 10.953 48.869 10.652 79.195-1.1353 114.54-30.445 91.287-154.12 172.81-238.13 156.97zm31.921-20.531c76.93-7.5089 152.6-64.142 177.44-132.81 3.744-10.347 3.3877-11.81-0.45374-1.8633-28.671 74.238-134.53 142.86-203.28 131.77-34.819-5.6168-63.609-35.333-64.42-66.49l-0.13111-5.0399-0.7963 6c-5.5845 42.079 36.864 73.78 91.635 68.434zm-4.8454-6.6268c-0.97297-0.25354-2.323-0.23687-3 0.0371-0.67703 0.27393 0.11903 0.48137 1.769 0.46099 1.65-0.0204 2.2039-0.2445 1.231-0.49804zm196.35-152.13c5.1069-23.71 3.7236-52.862-4.1145-86.709-11.256-48.606-4.2665-65.846 38.237-94.318 10.832-7.2562 27.657-19.491 37.387-27.189 9.7307-7.6978 18.868-14.855 20.305-15.906 2.5734-1.881 2.53-1.8812-2.8873-0.0161-3.025 1.0415-7.3428 1.9083-9.595 1.9263-5.0645 0.0404-9.3113 3.5403-5.2373 4.3161 1.6698 0.31799 1.3381 0.48633-1.1677 0.59264-2.785 0.11814-5.7771 1.9564-14.646 8.9984-6.1304 4.8675-19.516 14.583-29.745 21.591-48.152 32.987-54.726 59.02-32.596 129.09 5.8422 18.497 6.6858 43.857 2.071 62.262-1.1464 4.5723-2.0559 8.6223-2.021 9 0.1644 1.7809 2.1253-4.8872 4.0092-13.634zm-38.08-205.3c0-1.1-0.45-1.7219-1-1.382-0.55 0.33992-1 1.518-1 2.618s0.45 1.7219 1 1.382c0.55-0.33992 1-1.518 1-2.618zm104.06-21.05c4.7824-3.8432 4.8605-4.4346 0.69136-5.2304-13.657-2.607-25.3-14.012-26.945-26.395l-0.30467-2.2929-3.3302 2.7929-3.3302 2.7929 2.1508 5.7467c5.7584 15.385 23.752 28.466 31.068 22.586zm19.441 0.78029c17.929-4.8887 29.505-13.795 31.015-23.863 0.96205-6.416 1.2612-6.5625-18.015 8.8219-22.854 18.24-22.275 17.57-13 15.041zm5-21.074c6.9702-6.3101 5.2311-7.7712-8.4925-7.1346-10.249 0.47544-12.425-0.26816-14.89-5.089-2.4937-4.8762-1.0949-5.4686 4.2878-1.8157 4.3394 2.9448 5.3274 3.0523 7.7664 0.84501 6.3274-5.7262-6.3386-11.413-15.206-6.8268-9.3031 4.8108 1.3209 23.444 14.535 25.492 4.7629 0.73851 5.5237 0.39164 12-5.4714zm-18-15.539c-0.36155-0.585 0.67595-1 2.5-1s2.8616 0.415 2.5 1c-0.33992 0.55-1.4649 1-2.5 1s-2.1601-0.45-2.5-1zm61.08 4.0141c-0.22286-0.83276-0.70246-3.2686-1.0658-5.4131-0.64695-3.8185-0.69904-3.8598-2.5243-2-2.7148 2.7661-0.76458 11.9 2.1519 10.078 1.0139-0.63318 1.6611-1.8326 1.4382-2.6654zm29.92-21.544c14.3-11.064 75.95-58.531 137-105.48 154.44-118.77 282.14-217.71 288.34-223.48 1.0699-0.98994 0.5402-1.4238-2.7617-2.2619l-4.0856-1.037-30.393 24.332c-44.61 35.737-80.26 63.767-143.56 112.91-67.13 52.116-74.12 57.478-71.5 54.84 3.0675-3.0875 156.64-133.8 209.29-178.14 20.9-17.6 22.247-19.415 13.346-17.98-1.1361 0.18308-33.244 26.474-71.352 58.423-119.4 100.11-159.03 132.59-284.13 232.85-59.245 47.482-69.709 56.248-69.238 58 0.30494 1.1354 0.56058 3.5534 0.56809 5.3734 0.0169 4.0878-2.8816 5.9519 28.514-18.339zm-52.603 16.517c6.5486-5.5901-19.262-27.987-32.253-27.987-4.0802 0-6.5609 3.7508-3.0065 4.5457 8.9298 1.9972 10.323 3.0912 20.942 16.441 9.3095 11.704 8.9901 11.548 14.318 7.0004zm-38.397-39.271c6.1984-6.0711-19.497 6.064-27.307 12.896-5.1193 4.4782-12.193 16.426-12.193 20.595 0 1.6258 27.145-21.389 39.5-33.491zm53.524 26.755c5.9669-7.1896-28.129-33.276-35.274-26.988-3.5507 3.1251-3.546 3.1354 1.7532 3.8617 8.6504 1.1857 20.356 9.821 27.66 20.405 3.2118 4.6541 3.966 5.0043 5.8608 2.7212zm47.12-38.039c20.546-16.537 58.731-46.887 84.856-67.445 85.953-67.637 114.25-90.629 218.27-177.35 38.924-32.449 70.424-59.327 70-59.728-5.4752-5.1793-80.423-2.2924-87.13 3.3563-0.90251 0.76001-8.8409 7.67-17.641 15.356-46.553 40.657-132.06 113.99-194.5 166.81-20.075 16.982-37.85 32.033-39.5 33.448l-3 2.572 3-3.0953c1.65-1.7024 38.325-34.512 81.5-72.91 143.16-127.31 167.03-148.81 165.98-149.46-0.57592-0.35594 0.10854-1.164 1.5373-1.815 3.1961-1.4562 4.4787-1.4962 2.4813-0.07725-1.1778 0.83668-0.96298 0.95073 1 0.53093 26.554-5.6787 53.07-6.6334 83.904-3.021l12.404 1.4532 2.387-2.2425c3.1717-2.9797 2.6842-3.135-16.705-5.3216-22.127-2.4954-56.163-1.6446-74.217 1.8553l-12.726 2.4671-19.274 17.322c-19.451 17.482-80.163 72.164-190.27 171.38-59.108 53.257-98.124 87.971-128.68 114.48l-15.556 13.5 5.5963 3c7.8276 4.1962 17.037 13.629 21.159 21.673 3.3651 6.5664 3.4541 6.646 5.5927 5 1.1953-0.9199 18.983-15.203 39.529-31.74zm-93.981-0.0844 6.8751-0.63898 25.231-22.563c13.88-12.41 37.83-33.83 53.23-47.59 79.01-70.61 226.01-202.58 258.62-232.18l25.62-23.251 11.88-2.4876c33.885-7.0953 73.352-6.7887 111.88 0.86902 2.7367 0.54394 11.59-4.7533 10.226-6.1181-0.6788-0.67877-24.253-5.2547-36.374-7.0606-18.797-2.8004-63.589-2.5442-80.351 0.45966-20.461 3.6666-21.789 4.2188-32.234 13.403-26.026 22.886-87.437 78.233-192.86 173.82-80.781 73.239-106.86 96.431-153.4 136.42-12.1 10.397-22.446 19.296-22.99 19.775-0.54477 0.47906 0.98245 0.17492 3.3938-0.67586 2.4114-0.85079 7.4781-1.8344 11.259-2.1858zm521.08-303.74c2.6212-1.9898 2.1252-3.4507-1.5-4.4177-2.452-0.65406-3.7576-0.47692-5.317 0.72141-2.8722 2.207-2.9447 3.4775-0.242 4.2387 3.5989 1.0136 5.1681 0.89305 7.059-0.54237zm-23.358-6.6662c2.7615-2.2998 2.6902-2.4488-1.5595-3.2566-3.7549-0.71381-9.5918 2.9012-7.1665 4.4385 2.2695 1.4386 6.2221 0.90331 8.726-1.1818zm37.406-4.3339c6.0092-4.7778 5.1094-8.4114-2.798-11.298-7.7565-2.8318-7.4328-2.9048-6.3861 1.4406 0.4968 2.0625 1.1516 5.55 1.4551 7.75 1.0478 7.5955 0.8833 7.5506 7.729 2.1078zm-5.6743-4.4077c-0.2719-0.43992 0.3766-1.3437 1.441-2.0085 1.6725-1.0445 1.9353-0.93592 1.9353 0.79985 0 1.9558-2.3865 2.8101-3.3763 1.2086zm-13.295-6.5862c2.8106-2.2996 1.9448-5.6139-1.4667-5.6139-3.9405 0-9.0438 6.6332-5.6118 7.2943 3.9028 0.75171 4.1889 0.68379 7.0785-1.6804zm-687.33 798.04c0-0.29365 5.2875-4.4542 11.75-9.2458 95.553-70.846 125.57-140.91 102.74-239.78-7.7107-33.393-5.4368-46.478 10.086-58.043 3.246-2.4184 3.0079-2.0309-1.3791 2.244-12.037 11.73-13.704 22.848-7.147 47.679 8.9912 34.049 10.958 46.514 10.931 69.284-0.0787 67.5-34.196 125.36-101.98 172.95-10.917 7.6648-25 16.067-25 14.916zm-64.5-49.156c11.893-5.8712 44.854-21.494 45.349-21.494 4.3557 0-26.111 16.785-36.877 20.316-11.325 3.7148-14.507 4.1572-8.4713 1.1776zm74.461-40.994c14.105-19.812 22.602-35.429 38.631-71l1.8025-4 0.35774 3.1422c1.6565 14.549-20.632 54.888-40.809 73.858l-4.2545 4zm595.04-57.926c-32.821-13.277-69.656-31.251-67.815-33.092 1.5002-1.5002 34.008 11.709 68.805 27.959 22.828 10.66 23.326 10.704 34.77 3.0419 4.5326-3.0346 8.2411-5.3744 8.2411-5.1994 0 0.59325-13.487 11.391-15.684 12.558-4.9289 2.6158-12.15 1.2727-28.316-5.2667zm-534.35-84.6c-18.636-27.275-41.93-28.525-78.987-4.2382-11.59 7.5958-9.6992 5.2693 3.3253-4.0923 33.912-24.375 59.566-20.608 79.007 11.602 3.6901 6.1139 1.8153 4.2798-3.3444-3.2717zm623.44 52.698c0-0.2585 8.0871-5.9296 17.971-12.602 22.129-14.939 25.76-19.405 24.871-30.584-0.4071-5.1186 0.9238-4.459 2.1723 1.0765 1.3791 6.1149-0.6772 13.101-5.382 18.283-2.5629 2.8233-39.633 25.11-39.633 23.827zm-72.5-3.3825c-7.0116-3.7994-34.242-15.42-65-27.74-35.695-14.297-231.69-108.7-231.15-109.23 1.0392-1.0392 248.4 149.62 280.05 122.62l19.898 8.0174 9.1016-7.3272c5.0059-4.03 14.946-7.1146 15.95-11.372l6.8482-4.0452-6.4045-3.5816c-14.548-8.136-29.193-14.271-82.792-34.682-37.852-14.415-274.8-129.48-272.73-131.55 0.15716-0.15716 25.922 9.9855 57.256 22.539s224.07 104.23 244.97 112.06c34.677 12.986 74.742 42.649 76.786 31.158l4.0769 2.0798-9.7483 6.1371c-5.3616 3.3754-16.968 10.75-25.791 16.387-17.381 11.105-16.931 10.925-21.323 8.5443zm28-52.465c-59.86-21.1-231.6-104.05-266.74-117.72-21.289-8.2799-49.414-19.089-62.5-24.02s-25.403-9.6409-27.371-10.466l-3.5782-1.5009-5.4218 4.5428c-7.1814 6.0171-16.226 11.852-28.422 18.336-5.5 2.9242-10.172 5.4563-10.383 5.6269-0.2107 0.17057 1.0268 1.9159 2.75 3.8785 4.1966 4.7796 4.1614 4.7908-3.8669 1.2237-8.7749-3.8988-8.3034-4.4476 39.226-45.659l3.7257-3.2304 32.774 13c18.026 7.1501 48.974 19.175 68.774 26.721 41.14 15.68 205.08 96.435 225.51 106.17 19.439 9.263 59.897 31.193 55.744 30.216-0.1375-0.0323-9.25-3.2328-20.25-7.1122zm-325.5-78.492c-25.995-10.555-39.667-16.675-60.25-26.969-19.748-9.8764-26.851-13.967-15.5-8.9273 19.286 8.5634 90.319 40.794 90.662 41.138 1.0558 1.0558-2.3627-0.14577-14.912-5.2414zm-267.5-94.538c-35.57-12.34-46.59-18.2-53.36-28.31-7.95-11.88-19.49-16.48-76.18-30.38-82.88-20.33-134.93-38.6-171.64-60.24-170.44-100.49-73.963-306.35 102.04-217.73 54.169 27.273 85.116 68.963 107.11 144.29 13.443 46.038 19.398 52.083 68.599 69.637 23.437 8.3616 57.074 23.148 93.894 41.275 13.242 6.5191 14.203 9.0686 5.5888 14.828-2.282 1.5256-2.0439 1.1402 0.91119-1.4756 4.9914-4.4183 4.3502-5.9075-4.0122-9.3174-34.319-13.995-74.819-29.254-96.497-36.357-56.647-18.562-63.313-24.652-80.458-73.508-9.0773-25.867-8.1692-25.047-8.7649-7.9189-0.97531 28.046 13.24 58.17 33.984 72.015 7.7217 5.1537 8.8345 6.3419 2.7479 2.9339-15.974-8.9443-26.92-22.824-35.604-45.148-2.9643-7.6206-3.4357-8.3098-4.2585-6.2255-8.0954 20.507-19.067 32.771-35.178 39.319-3.5207 1.4309-5.3245 2.6193-4.4434 2.9274 0.81584 0.28523 15.208 5.0779 31.983 10.65 67.836 22.534 95.2 37.898 107.1 60.134 1.9474 3.6388 0.0264 1.6853-3.0365-3.0878-6.0242-9.3878-17.229-18.141-34.063-26.609-25.296-12.725-108.89-38.137-128.01-38.917-14.093-0.57482-17.368-1.7552 42.514 15.323 85.464 24.375 104.66 33.353 118.2 55.303 3.3456 5.4203 4.2411 6.1184 14.382 11.212l10.815 5.4317 9.302-6.1712c5.1161-3.3942 15.735-9.7712 23.597-14.171l14.295-8-3.7758-3.3033-3.7758-3.3033 5.9783 2.2205c3.288 1.2213 6.3412 2.5307 6.7847 2.9098 0.44355 0.37906-10.732 10.616-24.834 22.748l-25.641 22.059-15.666-7.5112c-8.616-4.1311-16.303-7.6181-17.082-7.7489-0.77928-0.13074-1.5378-1.0616-1.6856-2.0687-3.34-22.77-29.52-34.03-169.65-72.93-103.91-28.84-146.65-58.37-162.21-112.06-3.3088-11.418-3.1369-13.99 0.30024-4.4914 15.9 43.941 58.552 73.256 140.97 96.89 22.882 6.5615 23.985 6.7772 31.707 6.1969l8-0.60126-6.5-1.6746c-3.575-0.921-11.675-2.3499-18-3.1753-16.629-2.17-27.417-5.6148-45.5-14.529-8.8-4.3379-22.075-10.785-29.5-14.326-85.965-40.99-104.2-124.85-35.06-161.18 53.55-28.142 157.3 25.52 183.47 94.9 2.4897 6.6 5.8972 15.375 7.5721 19.5l3.0454 7.5-0.59375-6c-6.36-64.31-80.08-124.99-156.94-129.18-71.362-3.886-108.5 80.17-59.044 133.64 4.8577 5.2525 4.8971 5.3404 1.0476 2.3382-27.667-21.58-36.081-63.68-19.525-97.7 3.2298-6.6366 3.4896-7.5593 1.4365-5.1018-22.125 26.483-19.675 78.946 5.3241 114 31.562 44.257 72.838 64.259 218.76 106.02 66.196 18.942 80.552 25.91 90.95 44.146l3.9387 6.9079 20.556 10.245c11.306 5.635 20.865 10.232 21.242 10.215 0.37775-0.0167 13.203-9.3906 28.5-20.831 42.432-31.734 41.364-31.301 18.44-7.4632-39.354 40.923-44.31 44.648-54.626 41.064zm-152.69-135.78c17.049-8.2449 27.54-22.41 31.659-42.749l1.6678-8.2342-2.6695-8.0158c-3.2744-9.8321-2.9937-10.026-3.2288 2.2342-0.54922 28.643-13.361 47.744-37.468 55.863l-7.7576 2.6126 3.2246 1.0353c5.0624 1.6253 5.8328 1.4801 14.572-2.7462zm-15.848-12.602c49.188-14.604 35.675-106.27-21.315-144.58l-6.1849-4.1585 9.2099 9.5791c32.092 33.378 47.29 84.046 33.949 113.18-9.9616 21.759-46.028 24.552-81.08 6.279l-8.0796-4.212 24-0.61507c27.608-0.70754 43.115-4.0223 43.597-9.3191 8.0353-88.379-90.787-166.22-143.69-113.18-36.681 36.776-14.281 80.249 61.092 118.56 13.09 6.6542 12.022 6.818-5.5 0.84295-30.317-10.338-56.809-26.587-71.406-43.795l-3.817-4.5 2.7657 5c9.247 16.717 22.942 28.64 47.718 41.541 5.9186 3.0819 10.432 5.9323 10.03 6.334-0.40178 0.40179 0.11709 0.40527 1.153 0.008 1.2002-0.46055 1.6508-0.34624 1.2421 0.31508-1.4521 2.3495 29.854 14.47 51.297 19.861 21.819 5.485 42.534 6.5594 55.016 2.8535zm-153.7-124.97c1.6188-15.685 19.163-30.222 39.707-32.903l4.5-0.5872-6.2767 2.4831c-13.468 5.3281-25.28 15.649-32.966 28.805-5.3973 9.2387-5.7052 9.3754-4.9649 2.2028zm91.707-12.84c-19.911-9.1268-28.596-13.647-25-13.013 9.6086 1.6944 25.433 8.9101 32.5 14.82 4.0254 3.366 3.5164 3.2435-7.5-1.8062zm264 203.29c-23.854-9.4952-46.885-17.941-60.158-22.06-37.363-11.596-59.552-24.996-67.638-40.846-1.4598-2.8613-1.6418-3.6026-0.5-2.0358 7.0005 9.6062 9.6378 12.573 14.608 16.432 10.919 8.4788 29.087 16.512 54.3 24.008 13.932 4.1424 70.42 26.663 73.304 29.226 1.2043 1.0698-2.6343-0.23326-13.917-4.7242zm-148.23-189.15c-1.8511-2.3375-6.0438-7.6188-9.317-11.736-31.692-39.867-93.992-77.014-129.16-77.014-1.443 0-2.3409-0.28274-1.9953-0.6283 1.0688-1.0688 19.627 1.677 31.426 4.6495 45.187 11.384 80.468 36.051 104.67 73.178 8.424 12.924 11.14 20.089 4.3789 11.551zm-279.22-6.6c3.1908-35.18 28.987-67.146 65.192-80.773 8.662-3.261 10.225-2.946 2.262 0.455-32.891 14.048-56.555 41.858-65.57 77.068-2.4436 9.5425-2.4561 9.5642-1.8843 3.2588z"/>
</svg>
